<?xml version="1.0" encoding="UTF-8" standalone="no"?>
<!-- Created with Inkscape (http://www.inkscape.org/) -->

<svg
   xmlns:dc="http://purl.org/dc/elements/1.1/"
   xmlns:cc="http://creativecommons.org/ns#"
   xmlns:rdf="http://www.w3.org/1999/02/22-rdf-syntax-ns#"
   xmlns:svg="http://www.w3.org/2000/svg"
   xmlns="http://www.w3.org/2000/svg"
   xmlns:sodipodi="http://sodipodi.sourceforge.net/DTD/sodipodi-0.dtd"
   xmlns:inkscape="http://www.inkscape.org/namespaces/inkscape"
   id="svg2"
   version="1.1"
   inkscape:version="0.91 r13725"
   width="275"
   height="275"
   viewBox="0 0 275 275"
   inkscape:export-xdpi="10.47"
   inkscape:export-ydpi="10.47">
  <metadata
     id="metadata8">
    <rdf:RDF>
      <cc:Work
         rdf:about="">
        <dc:format>image/svg+xml</dc:format>
        <dc:type
           rdf:resource="http://purl.org/dc/dcmitype/StillImage" />
        <dc:title />
      </cc:Work>
    </rdf:RDF>
  </metadata>
  <defs
     id="defs6" />
  <sodipodi:namedview
     pagecolor="#ffffff"
     bordercolor="#666666"
     borderopacity="1"
     objecttolerance="10"
     gridtolerance="10"
     guidetolerance="10"
     inkscape:pageopacity="0"
     inkscape:pageshadow="2"
     inkscape:window-width="1366"
     inkscape:window-height="744"
     id="namedview4"
     showgrid="false"
     inkscape:zoom="2.0545455"
     inkscape:cx="137.5"
     inkscape:cy="137.5"
     inkscape:window-x="0"
     inkscape:window-y="0"
     inkscape:window-maximized="1"
     inkscape:current-layer="svg2" />
  <g
     id="g3338"
     transform="matrix(0.9961947,0.08715574,-0.08715574,0.9961947,67.604166,-1.3375891)">
    <path
       style="fill-opacity:1"
       d="m 0,263.32988 c 0,-3.59957 4.0572481,-24.63762 7.0121851,-36.36029 1.5985607,-6.34173 5.5856649,-19.84173 8.8602319,-30 8.908417,-27.63545 9.4054,-31.94741 5.049347,-43.80945 -2.375909,-6.46988 -0.584007,-6.65424 2.630017,-0.27059 l 2.141119,4.25266 0.59441,-8.42286 c 1.771587,-25.1036 16.411555,-56.965265 39.308524,-85.54903 15.658,-19.546892 41.456276,-43.649405 54.397966,-50.822311 3.26145,-1.807647 8.87609,-3.9698967 12.47698,-4.8050001 3.6009,-0.8351034 8.82814,-2.6742699 11.6161,-4.0870366 2.78797,-1.4127667 7.21984,-2.82339937 9.84862,-3.13473933 4.21987,-0.49978038 4.97195,-0.29146042 6.42205,1.77885343 3.96425,5.6597593 1.07835,13.1353446 -10.74939,27.8450216 -4.17703,5.19481 -10.13853,13.74481 -13.24777,19 -3.10923,5.255191 -7.94978,12.683025 -10.75677,16.5063 -6.49703,8.849315 -17.79306,31.601497 -16.47942,33.192431 0.61879,0.749408 0.0398,3.163231 -1.67903,7.000001 -1.44293,3.22089 -4.19026,10.35616 -6.10518,15.85616 -4.818262,13.83888 -9.556419,23.13861 -14.902975,29.25053 -5.184221,5.92634 -18.010378,14.23528 -32.937015,21.337 l -10,4.75774 6,0.0447 c 3.395591,0.0253 8.387375,-0.77631 11.5,-1.84675 l 5.5,-1.89147 -2.695953,2.32966 c -3.25002,2.80845 -10.537401,4.50378 -19.603268,4.56049 -4.4048,0.0275 -7.829236,0.64366 -9.994164,1.79811 l -3.293385,1.7562 9.543385,-0.41739 c 11.23271,-0.49128 13.146988,1.19904 2.480588,2.19038 -8.123275,0.75498 -12.522724,2.37528 -15.617563,5.7519 -2.595972,2.83233 -11.005153,31.04482 -16.730109,56.12888 -0.7568496,3.31616 -3.2500836,3.63078 -3.9622207,0.5 -0.2814854,-1.2375 -0.354625,0 -0.1625326,2.75 0.3889863,5.56874 -1.109627,10.0385 -4.3267616,12.90499 C 0.03245162,265.28106 0,265.27992 0,263.32988 Z M 14.859429,215 c 0,-0.94548 -0.317714,-0.76064 -0.859429,0.5 -0.472686,1.1 -0.859429,2.675 -0.859429,3.5 0,0.94548 0.317714,0.76064 0.859429,-0.5 0.472686,-1.1 0.859429,-2.675 0.859429,-3.5 z m 14.697399,-44.5 c 0.432389,-1.60539 0.345135,-1.69581 -0.442235,-0.45823 -1.328224,2.08767 -14.134609,40.56805 -14.037116,42.17845 0.06617,1.09298 12.935565,-35.98839 14.479351,-41.72022 z m 17.453426,-1.36504 c 3.56936,-1.64273 6.019598,-3.02012 5.444972,-3.06087 -2.35071,-0.1667 -19.909418,9.59766 -21.377282,11.88786 -1.261036,1.96751 -0.471287,1.62827 3.93231,-1.68913 3.030639,-2.2831 8.430639,-5.49514 12,-7.13786 z M 43,167 c 0.825,-0.53316 1.05,-0.96937 0.5,-0.96937 -0.55,0 -1.675,0.43621 -2.5,0.96937 -0.825,0.53316 -1.05,0.96937 -0.5,0.96937 0.55,0 1.675,-0.43621 2.5,-0.96937 z m 5,-2 c 0.825,-0.53316 1.05,-0.96937 0.5,-0.96937 -0.55,0 -1.675,0.43621 -2.5,0.96937 -0.825,0.53316 -1.05,0.96937 -0.5,0.96937 0.55,0 1.675,-0.43621 2.5,-0.96937 z m -15.030626,-3.5 c 0,-0.55 -0.436218,-0.325 -0.969374,0.5 -0.533156,0.825 -0.969374,1.95 -0.969374,2.5 0,0.55 0.436218,0.325 0.969374,-0.5 0.533156,-0.825 0.969374,-1.95 0.969374,-2.5 z m 11.318414,1.85118 c 1.753657,-0.90685 6.79381,-2.89798 11.20034,-4.42472 8.908983,-3.08672 7.788157,-3.57526 -3.488128,-1.52039 -9.106046,1.65939 -10.774352,2.30379 -12.02778,4.64584 -1.878036,3.50914 -0.664417,3.87452 4.315568,1.29927 z M 31.923922,151.55 c 0.143716,-3.68368 -1.709364,-0.11612 -2.31144,4.45 l -0.593357,4.5 1.41436,-3.5 c 0.777897,-1.925 1.448594,-4.3775 1.490437,-5.45 z m 30.730192,1.39913 c 18.465346,-4.69307 25.529547,-12.43444 38.866966,-42.5927 l 2.444,-5.52633 -4.232541,0.68794 C 97.404643,105.8964 92.8,107.09971 89.5,108.19205 c -6.822221,2.25825 -27.66566,13.67155 -33.004849,18.07256 -3.174774,2.61692 -8.185591,10.37828 -7.283029,11.28085 0.193405,0.1934 2.918734,-1.83894 6.056288,-4.51632 C 61.783025,127.47 70.347081,122.0661 77.505199,118.99777 84.098751,116.17144 96,112.92401 96,113.95119 c 0,0.45308 -3.0375,2.07022 -6.75,3.59366 -15.993364,6.56295 -25.261457,11.54495 -33.75,18.14208 -7.739197,6.01476 -9.245849,7.68236 -10.754946,11.90385 -2.978352,8.33153 -2.755919,8.72115 4.504946,7.8911 3.4375,-0.39297 9.469351,-1.53271 13.404114,-2.53275 z M 43.958355,124.21249 c 1.322634,-3.4254 1.984242,-7.29929 1.878648,-11 L 45.674007,107.5 45.087003,113 c -0.592015,5.54696 -1.989521,5.01101 -2.168936,-0.83179 C 42.723356,105.82728 35,127.91478 35,134.81256 c 0,6.74038 1.259439,6.94371 4.154896,0.67081 1.518997,-3.29085 3.680554,-8.36275 4.803459,-11.27088 z M 73.5,112.85513 c 3.85,-2.10485 6.590457,-3.83333 6.089904,-3.84106 -0.500552,-0.008 -5.225552,2.26489 -10.5,5.05029 -8.3752,4.42289 -9.146577,4.67549 -6.089904,1.99431 3.594459,-3.15292 23.58834,-13.41619 32.5,-16.682922 6.63169,-2.430968 12.21311,-8.257772 16.46563,-17.189506 3.9321,-8.25875 3.55884,-10.465501 -1.86109,-11.002928 -3.19403,-0.316712 -13.990018,2.76583 -19.560481,5.585038 -2.040271,1.032581 -3.070889,1.151158 -3.327012,0.382789 -0.534823,-1.604468 -7.426834,2.125312 -11.554546,6.253025 -3.07747,3.077469 -18.470509,32.382324 -20.190686,38.438484 -0.626191,2.2046 -0.320878,2.12158 5.181393,-1.40894 C 63.868943,118.37034 69.65,114.95998 73.5,112.85513 Z M 51.999936,108.25 C 56.753654,99.205278 71.302793,75.463071 77.277787,67 86.481221,53.964118 91.756877,47.423679 100.7501,37.90044 c 5.61829,-5.949395 8.05644,-9.241004 7.64302,-10.31838 C 108.05921,26.711927 107.40568,26 106.94081,26 c -2.80322,0 -32.428509,30.198943 -37.201588,37.921948 -1.546044,2.501551 -2.146788,5.018311 -2.092605,8.766767 0.08187,5.663679 -0.996797,6.310384 -2.017017,1.209286 C 65.095647,71.228236 64.772641,70.943802 63.486725,72.011017 61.624832,73.556251 52.727643,88.177779 50.025282,94.13338 48.044888,98.497874 47.065943,113 48.751717,113 c 0.413445,0 1.875143,-2.1375 3.248219,-4.75 z M 86,107 c 0.825,-0.53316 1.05,-0.96937 0.5,-0.96937 -0.55,0 -1.675,0.43621 -2.5,0.96937 -0.825,0.53316 -1.05,0.96937 -0.5,0.96937 0.55,0 1.675,-0.43621 2.5,-0.96937 z M 98.781483,68.620163 c 2.904817,-0.842084 5.015757,-1.10111 4.690987,-0.575612 C 103.14769,68.570048 103.51154,69 104.28102,69 c 2.83583,0 17.16077,-4.059451 19.32198,-5.475531 1.22761,-0.804359 5.26323,-6.538921 8.96805,-12.74347 3.70482,-6.204549 8.24194,-13.419541 10.08249,-16.033314 1.84055,-2.613773 3.34646,-5.201273 3.34646,-5.75 0,-1.52443 -10.84579,-1.187633 -17.5399,0.544671 -17.82669,4.613198 -19.75185,5.456234 -24.70771,10.819625 -7.024437,7.602073 -11.643998,14.217191 -9.194225,13.165943 5.560285,-2.386031 12.220505,-4.466345 14.391835,-4.495278 3.2614,-0.04346 1.59647,1.396577 -3.45,2.983973 -11.193993,3.521136 -19.219979,9.557029 -24.883538,18.713509 -4.204908,6.798226 -3.457237,7.255044 5.133538,3.136532 4.2625,-2.043489 10.126667,-4.404413 13.031483,-5.246497 z M 122.70536,28.48784 C 127.54241,27.106152 134.875,25.589533 139,25.117575 c 5.85841,-0.670283 6.51505,-0.885801 3,-0.984645 -2.475,-0.0696 -8.48842,0.571107 -13.36315,1.423786 -4.87472,0.85268 -9.05589,1.357573 -9.29148,1.121985 C 117.56227,24.895599 136.80645,21 147.39805,21 c 5.47658,0 7.79676,-1.480261 10.47699,-6.684259 1.5812,-3.07011 1.41,-8.2691318 -0.29384,-8.9229548 -2.11116,-0.8101297 -15.13402,4.153422 -22.81662,8.6963598 C 128.65582,17.701428 113,29.564562 113,30.581165 c 0,0.653219 0.3682,0.573803 9.70536,-2.093325 z M 112.12756,22.25 c 1.24387,-1.586056 1.2085,-1.621426 -0.37756,-0.377555 -0.9625,0.754844 -1.75,1.542344 -1.75,1.75 0,0.823034 0.82119,0.293303 2.12756,-1.372445 z m 16.3452,-11.110571 c -0.80671,-0.806713 -7.9409,4.822623 -11.37668,8.976939 -3.04884,3.686459 -2.61024,3.455686 4.20465,-2.212306 4.18471,-3.480453 7.41213,-6.524538 7.17203,-6.764633 z"
       id="path3352"
       inkscape:connector-curvature="0" />
    <path
       style="fill-opacity:1"
       d="m 0,263.29734 c 0,-8.69716 8.1694159,-42.6195 16.327431,-67.79734 8.380829,-25.86551 8.976923,-31.5035 4.529425,-42.84034 -2.413501,-6.1521 -0.384845,-5.85807 2.820306,0.40878 l 2.266499,4.43156 0.02817,-5.34292 C 26.068584,133.8059 36.054084,106.93933 52.047121,82 73.221448,48.981035 113.50221,11.318387 131.23988,7.9545071 133.90329,7.449402 139.301,5.6234998 143.2348,3.8969467 c 9.64743,-4.23428423 13.91221,-4.74993884 16.6491,-2.0130439 4.78625,4.7862474 1.82305,13.0353262 -9.83827,27.3882442 -3.91992,4.82468 -10.25551,13.952152 -14.0791,20.283269 -3.82359,6.331118 -8.86775,14.029151 -11.20925,17.10674 -5.49325,7.220135 -16.86133,30.439611 -15.64167,31.94834 0.56005,0.692797 -0.0864,3.325754 -1.71864,7.000004 -1.439,3.23922 -4.18748,10.3895 -6.10773,15.8895 -4.582065,13.12398 -9.618436,23.17398 -14.439913,28.81462 -5.094966,5.9606 -15.280651,12.70427 -30.809677,20.39825 L 43.5,176.92575 l 6,0.004 c 3.3,0.002 8.359316,-0.8106 11.242925,-1.80681 4.302287,-1.48633 5.019931,-1.54239 4,-0.31245 -2.33315,2.81354 -8.196429,4.40779 -18.779274,5.10615 -6.97652,0.46038 -11.33126,1.22696 -12.795256,2.25238 -2.056077,1.44013 -1.518668,1.51782 7.306142,1.05623 11.24634,-0.58826 13.234632,1.14234 2.462666,2.14349 -8.120818,0.75475 -12.518925,2.37393 -15.623654,5.7519 -2.139668,2.32798 -10.101681,28.1569 -15.298577,49.62888 -2.2814784,9.42637 -4.3938961,11.98156 -5.3736543,6.5 C 6.3709778,245.7375 6.2889535,246.975 6.4590414,250 6.778619,255.68366 4.8332695,261.23363 1.573088,263.93934 0.23388591,265.05078 0,264.95533 0,263.29734 Z M 11.683114,224.8125 c -0.319226,-0.79773 -0.556183,-0.56078 -0.604167,0.60417 -0.04342,1.05416 0.192928,1.64479 0.52522,1.3125 0.332291,-0.3323 0.367818,-1.1948 0.07895,-1.91667 z M 14.859429,215 c 0,-0.94548 -0.317714,-0.76064 -0.859429,0.5 -0.472686,1.1 -0.859429,2.675 -0.859429,3.5 0,0.94548 0.317714,0.76064 0.859429,-0.5 0.472686,-1.1 0.859429,-2.675 0.859429,-3.5 z m 14.697399,-44.5 c 0.420041,-1.55955 0.327921,-1.66966 -0.418298,-0.5 -1.362562,2.13575 -14.154313,40.4498 -14.061053,42.11588 0.06538,1.16798 12.862681,-35.61344 14.479351,-41.61588 z m 16.306831,-0.72523 C 50.063646,167.64235 52.375,166.19878 51,166.56683 45.940565,167.9211 32.600635,175.57532 31.074027,178 c -1.392681,2.21197 -1.071285,2.10551 2.789632,-0.92405 2.400012,-1.88323 7.800012,-5.16875 12,-7.30118 z M 32.426786,163 c 0.46475,-1.73748 0.386035,-2.04249 -0.258074,-1 -0.509732,0.825 -1.227707,2.625 -1.595498,4 -0.46475,1.73748 -0.386035,2.04249 0.258074,1 0.509732,-0.825 1.227707,-2.625 1.595498,-4 z M 43,167 c 0.825,-0.53316 1.05,-0.96937 0.5,-0.96937 -0.55,0 -1.675,0.43621 -2.5,0.96937 -0.825,0.53316 -1.05,0.96937 -0.5,0.96937 0.55,0 1.675,-0.43621 2.5,-0.96937 z m 13,-8.14323 c 10.745392,-3.91756 10.131113,-4.06453 -5.338859,-1.2773 -9.196345,1.65691 -9.221228,1.66915 -11.209863,5.51475 l -1.534499,2.96739 3.79161,-1.68837 C 43.793775,163.44463 50.225,160.96222 56,158.85677 Z M 48,165 c 0.825,-0.53316 1.05,-0.96937 0.5,-0.96937 -0.55,0 -1.675,0.43621 -2.5,0.96937 -0.825,0.53316 -1.05,0.96937 -0.5,0.96937 0.55,0 1.675,-0.43621 2.5,-0.96937 z M 31.969591,151.13519 C 31.924882,147.26075 30.381168,150.40731 29.582898,156 l -0.642305,4.5 1.529703,-3.36481 c 0.841337,-1.85065 1.51602,-4.55065 1.499295,-6 z M 35.969374,153.5 c 0,-0.55 -0.436218,-0.325 -0.969374,0.5 -0.533156,0.825 -0.969374,1.95 -0.969374,2.5 0,0.55 0.436218,0.325 0.969374,-0.5 0.533156,-0.825 0.969374,-1.95 0.969374,-2.5 z M 55.5,154.56692 c 24.342351,-4.35227 31.250068,-10.99647 46.17095,-44.40961 l 2.38582,-5.3427 -4.278387,0.69568 c -7.858788,1.27786 -16.176008,4.61097 -28.26909,11.32878 -12.744912,7.0799 -20.228526,13.48241 -22.205,18.99722 l -1.195706,3.33629 2.835562,-2.33629 C 62.792117,127.07446 66.450378,124.51216 73.5,121.03788 c 8.230614,-4.05631 22.5,-8.55065 22.5,-7.08669 0,0.45308 -3.0375,2.04648 -6.75,3.5409 -14.233552,5.72952 -27.052938,12.67348 -34.879847,18.89357 -6.80871,5.41093 -8.39313,7.23353 -9.75,11.21573 -3.139934,9.2152 -2.826174,9.41608 10.879847,6.96553 z M 43.958355,124.21249 c 1.322634,-3.4254 1.984242,-7.29929 1.878648,-11 L 45.674007,107.5 45.087003,113 c -0.616587,5.77719 -2.023121,4.90711 -2.152914,-1.33179 -0.0531,-2.55221 -0.736869,-1.46424 -3.516782,5.59565 -3.512656,8.92078 -5.299838,19.12159 -3.926844,22.4135 0.608632,1.45926 1.325007,0.62643 3.593218,-4.17736 1.558166,-3.3 3.751769,-8.37938 4.874674,-11.28751 z m 17.828734,-4.45623 c 2.357899,-1.59686 7.982899,-4.88776 12.5,-7.31311 C 78.80419,110.0178 82.05,108.03453 81.5,108.0359 c -0.55,0.001 -5.232306,2.24904 -10.405125,4.99483 -5.172819,2.7458 -9.579098,4.81838 -9.79173,4.60575 -1.286727,-1.28673 16.355791,-10.92286 30.590289,-16.70805 4.718777,-1.917808 10.053226,-4.947326 12.184626,-6.919847 C 107.74472,90.615241 115,77.911741 115,74.885006 115,72.492964 112.83741,71 109.37248,71 106.69006,71 95.818043,74.4046 88.75,77.457981 87.671164,77.924036 87,77.781628 87,77.086665 c 0,-1.740697 -7.463698,2.443699 -11.425527,6.405528 -3.159353,3.159353 -18.282558,32.028887 -20.106818,38.383037 -0.764638,2.66334 -0.719893,2.64833 6.319434,-2.11897 z M 51.999936,108.25 C 65.008991,83.498156 85.089187,54.592704 101.04671,37.647144 c 7.6125,-8.083836 8.08916,-8.809271 6.97395,-10.613708 -1.26366,-2.044645 -4.2376,0.227946 -17.002151,12.9925 -20.004819,20.004818 -25.121756,27.674528 -23.472652,35.182848 0.414713,1.888178 0.297258,2.81229 -0.309762,2.437131 -0.537774,-0.332363 -1.286611,-2.07616 -1.664082,-3.875106 L 64.885702,70.5 62.060975,73.820732 c -1.553599,1.826402 -5.240382,7.676402 -8.192851,13 -5.086805,9.172021 -5.386603,10.111613 -5.72074,17.929268 -0.193939,4.5375 0.03183,8.25 0.501717,8.25 0.469883,0 1.977759,-2.1375 3.350835,-4.75 z M 88.5,105.92807 c 2.2,-1.05798 2.875,-1.64352 1.5,-1.3012 -2.831493,0.70493 -8.029605,3.31113 -6.5,3.25893 0.55,-0.0188 2.8,-0.89975 5,-1.95773 z M 98.781483,68.609781 c 2.904817,-0.836374 5.015757,-1.090728 4.690987,-0.56523 C 103.14769,68.570048 103.51154,69 104.28102,69 c 2.83583,0 17.16077,-4.059451 19.32198,-5.475531 1.22761,-0.804359 5.2661,-6.538921 8.97442,-12.74347 3.70832,-6.204549 8.24545,-13.366289 10.08249,-15.914976 1.83705,-2.548687 3.34009,-5.136187 3.34009,-5.75 0,-3.031589 -22.37485,0.449069 -34.77097,5.409014 -3.7379,1.495612 -8.81775,6.621073 -15.77709,15.918756 C 92.973129,53.755486 92.820555,54.259928 94.5,53.591102 99.780639,51.488127 107.45272,49 108.65655,49 c 2.85821,0 1.14376,1.743183 -2.90655,2.95525 -11.119653,3.327591 -19.408957,9.519741 -25.133538,18.774878 -4.304017,6.958459 -3.507282,7.456585 5.133538,3.209535 4.2625,-2.095062 10.126667,-4.493509 13.031483,-5.329882 z M 125.34727,27.893085 c 4.316,-1.142446 10.841,-2.426613 14.5,-2.853705 5.94577,-0.69401 6.16188,-0.790496 2.03372,-0.907955 -2.54046,-0.07228 -8.56486,0.556673 -13.38756,1.397682 -4.8227,0.841009 -8.95032,1.34734 -9.17248,1.12518 C 117.54453,24.877864 137.3059,21 148.13487,21 c 4.00662,0 5.06336,-0.446871 7.27653,-3.077072 4.04804,-4.810823 4.9167,-12.0545001 1.52304,-12.700517 C 151.48575,4.1851999 128.0259,17.015189 117,27.062204 c -5.02326,4.577288 -5.59218,4.520658 8.34727,0.830881 z m -0.07,-13.305584 c 2.07747,-1.576519 3.54812,-3.095496 3.26811,-3.375503 -0.93638,-0.936381 -8.03471,4.683068 -12.01586,9.51245 L 112.5927,25.5 l 4.45365,-4.02305 c 2.44951,-2.212678 6.1534,-5.31293 8.23087,-6.889449 z M 112.12756,22.25 c 1.24387,-1.586056 1.2085,-1.621426 -0.37756,-0.377555 -0.9625,0.754844 -1.75,1.542344 -1.75,1.75 0,0.823034 0.82119,0.293303 2.12756,-1.372445 z"
       id="path3350"
       inkscape:connector-curvature="0" />
    <path
       style="fill-opacity:1"
       d="m 0,263.337 c 0,-8.61877 8.1776642,-42.50032 16.466593,-68.2241 3.081439,-9.56291 6.10982,-20.64958 6.729737,-24.63703 1.029468,-6.6218 0.928096,-7.86889 -1.170046,-14.39413 -1.263441,-3.9293 -2.042208,-7.39915 -1.730594,-7.71076 0.311615,-0.31162 1.701611,1.61493 3.08888,4.28122 l 2.522307,4.8478 0.04656,-4.61901 c 0.06897,-6.84232 2.778391,-21.21335 5.621321,-29.81607 C 35.149157,112.24879 44.722842,93.217714 52.735745,81 75.22521,46.709078 114.86269,10.306675 132.61781,7.6376484 134.8826,7.2971946 139.72132,5.621464 143.3705,3.9138026 c 8.98328,-4.20377968 13.75318,-4.79011799 16.5134,-2.0298998 4.67012,4.6701161 1.7891,12.8920092 -9.30978,26.5684322 -4.03837,4.976216 -10.58331,14.419644 -14.54432,20.985396 -3.961,6.565752 -9.14109,14.457962 -11.51131,17.538245 -5.62418,7.30904 -16.66179,30.093371 -15.35565,31.697819 0.63163,0.775877 0.29666,2.470885 -0.98809,5.000005 -1.06901,2.10441 -3.8492,9.2262 -6.17819,15.8262 -5.133756,14.54825 -10.589354,25.58268 -15.406251,31.16049 C 81.857493,156.14094 71.368235,163.00401 56,170.67559 l -12.5,6.2398 6,0.01 c 3.3,0.005 8.372829,-0.81 11.272954,-1.8118 5.090269,-1.75835 5.216001,-1.75853 3.62908,-0.005 -2.473276,2.73294 -7.338999,3.97716 -18.733992,4.79047 -6.635046,0.47358 -11.093937,1.28618 -12.513524,2.2805 -2.037126,1.42686 -1.478465,1.50673 7.320019,1.04651 11.24634,-0.58826 13.234632,1.14234 2.462666,2.14349 -8.139394,0.75648 -12.54741,2.3841 -15.577619,5.7519 -2.411796,2.6805 -7.081722,17.37849 -13.386011,42.13076 C 9.7679703,249.76417 7.7718339,253.57502 6.6413177,247.25 6.3709778,245.7375 6.2889535,246.975 6.4590414,250 6.778619,255.68366 4.8332695,261.23363 1.573088,263.93934 0.23578987,265.0492 0,264.95892 0,263.337 Z m 11.683114,-38.5245 c -0.319226,-0.79773 -0.556183,-0.56078 -0.604167,0.60417 -0.04342,1.05416 0.192928,1.64479 0.52522,1.3125 0.332291,-0.3323 0.367818,-1.1948 0.07895,-1.91667 z M 32.415595,162.5 c 0.351115,-1.1 -0.310365,0.025 -1.469957,2.5 -2.557939,5.4596 -16.485827,47.0984 -17.393636,52 -0.483825,2.61235 13.880274,-38.88787 18.863593,-54.5 z m 13.448064,7.35126 c 8.816811,-4.38817 8.81028,-5.00207 -0.0137,-1.28811 -8.02323,3.37693 -13.488825,6.89356 -14.946086,9.61647 -0.960177,1.79411 -0.383652,1.57642 3.070662,-1.15945 2.339033,-1.85255 7.68914,-5.07856 11.889128,-7.16891 z m -1.946992,-3.48671 c 1.372324,-1.20066 -1.882539,-0.0856 -3.475537,1.19062 -1.830306,1.46637 -1.798398,1.48719 0.55887,0.36454 1.375,-0.65484 2.6875,-1.35466 2.916667,-1.55516 z m -0.133423,-2.73684 c 2.594216,-1.30476 8.640864,-3.64315 13.436996,-5.19643 4.796133,-1.55327 8.580582,-2.96379 8.409887,-3.13449 -0.451305,-0.4513 -22.417494,3.45376 -23.624823,4.19993 C 40.794936,160.24477 37.699529,166 38.507564,166 c 0.307408,0 2.681464,-1.06753 5.27568,-2.37229 z M 51,163.83129 c 1.042487,-0.64411 0.737478,-0.72283 -1,-0.25808 -1.375,0.3678 -3.175,1.08577 -4,1.5955 -1.042487,0.64411 -0.737478,0.72283 1,0.25808 1.375,-0.3678 3.175,-1.08577 4,-1.5955 z M 31.969591,151.13519 C 31.924882,147.26075 30.381168,150.40731 29.582898,156 l -0.642305,4.5 1.529703,-3.36481 c 0.841337,-1.85065 1.51602,-4.55065 1.499295,-6 z M 35.969374,153.5 c 0,-0.55 -0.436218,-0.325 -0.969374,0.5 -0.533156,0.825 -0.969374,1.95 -0.969374,2.5 0,0.55 0.436218,0.325 0.969374,-0.5 0.533156,-0.825 0.969374,-1.95 0.969374,-2.5 z M 56.5,154.45124 c 10.447484,-1.79044 21.359396,-6.57361 26.406845,-11.57529 1.873765,-1.85677 4.843113,-5.62595 6.598551,-8.37595 3.630402,-5.68724 14.627284,-28.70066 14.009644,-29.31829 -0.22363,-0.22363 -3.780364,0.34399 -7.903858,1.26138 -11.036849,2.45547 -36.230588,15.96603 -42.265331,22.66549 C 51.307715,131.37121 47.601527,139 48.54044,139 c 0.241112,0 2.955395,-2.27941 6.03174,-5.06537 6.701664,-6.06905 14.161493,-10.95565 22.086054,-14.46758 C 83.65835,116.36482 96,112.81461 96,113.90319 c 0,0.9049 -3.045633,2.36652 -11.854609,5.6891 -9.589556,3.61699 -20.02208,9.3649 -28.988682,15.97162 -6.976913,5.14069 -8.331129,6.64458 -10.106566,11.2236 C 43.922564,149.69564 43,152.95814 43,154.03751 c 0,2.42265 1.507927,2.46887 13.5,0.41373 z M 43.052888,126.52689 c 2.222606,-5.55069 2.907042,-8.79413 2.784115,-13.19348 L 45.674007,107.5 45.044718,113 c -0.498181,4.35412 -0.770493,4.97915 -1.307048,3 -0.372768,-1.375 -0.80374,-3.625 -0.957715,-5 -0.198892,-1.77611 -1.231553,0.092 -3.566362,6.45163 -3.373537,9.18896 -5.035901,18.99703 -3.767023,22.22573 0.602072,1.53199 1.030678,1.21563 2.687752,-1.98388 1.0843,-2.09359 3.297655,-7.11856 4.918566,-11.16659 z m 25.065096,-10.56886 c 4.189891,-2.53412 11.272445,-6.1163 15.739008,-7.96042 4.466563,-1.84411 7.946219,-3.52773 7.732568,-3.74138 -0.589736,-0.58974 -14.140194,5.34303 -22.569128,9.88139 -4.560584,2.45554 -6.809771,3.28708 -5.763287,2.13073 2.648184,-2.92621 15.147195,-9.68942 26.543709,-14.36279 C 96.201052,99.281025 101.5712,96.321765 103.98234,94.090741 107.90695,90.459311 115,78.150707 115,74.971742 c 0,-5.064669 -8.18555,-5.0709 -20.218029,-0.01539 -4.002525,1.681683 -7.426137,2.611148 -7.608027,2.065479 -0.410763,-1.23229 -5.385468,1.239763 -10.358547,5.147417 -2.86733,2.253037 -5.695375,6.917034 -12.75,21.027232 C 59.079429,113.16909 55,121.98134 55,122.77926 c 0,1.1752 0.522348,1.10273 2.75,-0.3815 1.5125,-1.00774 6.178093,-3.90562 10.367984,-6.43973 z M 56,101.28764 C 67.449149,80.668405 85.701403,54.216776 95.874848,43.5 105.06287,33.821275 108.9024,28.909227 108.36811,27.516906 108.04796,26.682608 107.39007,26 106.90612,26 105.20597,26 89.404659,40.878525 80.5,50.864024 69.323939,63.396627 66.679625,67.976478 67.296587,73.731834 c 0.513475,4.789979 -0.712234,4.939933 -1.659613,0.203038 -0.361633,-1.808169 -1.129269,-2.93744 -1.836508,-2.701694 -1.947804,0.649268 -14.581155,23.486698 -15.533951,28.080873 -0.915456,4.414129 -0.519509,13.688139 0.584179,13.682829 C 49.207812,112.99516 52.425,107.726 56,101.28764 Z M 93.408227,70.498322 c 4.510103,-1.697598 7.850263,-2.380822 9.677443,-1.979506 4.27272,0.938446 18.89406,-3.34827 21.98105,-6.444451 1.4117,-1.415901 4.51887,-5.949365 6.90482,-10.074365 2.38595,-4.125 6.51842,-10.771182 9.18327,-14.769294 2.66486,-3.998112 4.84519,-7.710612 4.84519,-8.25 0,-1.819708 -11.71529,-0.99779 -21.30966,1.495036 -15.69066,4.076776 -16.9993,4.830465 -24.780375,14.27184 -3.850518,4.672127 -6.851476,8.644241 -6.668796,8.826921 0.18268,0.182679 3.37362,-0.771851 7.090981,-2.121179 C 107.4394,48.873529 110,48.446682 110,49.841712 c 0,0.462942 -1.9125,1.414034 -4.25,2.113538 -5.940883,1.777828 -14.741699,6.360777 -17.955487,9.350167 C 84.389927,64.472281 78,74.381369 78,76.494117 c 0,1.311721 0.746086,1.152955 4.260504,-0.906631 2.343277,-1.373252 7.359752,-3.663375 11.147723,-5.089164 z M 133.6468,26.097938 c 3.76926,-0.616321 8.2032,-1.273064 9.8532,-1.459429 1.65,-0.186364 0.67709,-0.406269 -2.16203,-0.488677 -2.83912,-0.08241 -8.67885,0.523046 -12.97718,1.345452 -4.29833,0.822407 -8.52608,1.269644 -9.39499,0.99386 -0.91757,-0.291223 -2.75821,0.728512 -4.39076,2.432527 l -2.8109,2.933952 7.51473,-2.318551 c 4.13309,-1.275203 10.59866,-2.822813 14.36793,-3.439134 z m -6.27674,-2.651213 c 2.67854,-0.730975 9.55341,-1.642762 15.27749,-2.026195 9.90603,-0.663564 10.52655,-0.838729 12.88023,-3.635912 3.98531,-4.736273 4.74424,-11.9266761 1.32751,-12.5774487 -3.11635,-0.5935632 -18.07864,6.0298967 -26.801,11.8641887 -8.95619,5.990693 -13.59351,10.118124 -9.55429,8.503758 1.1,-0.439641 4.19153,-1.397417 6.87006,-2.128391 z m -2.57395,-8.394704 c 2.36287,-1.811219 4.07404,-3.515208 3.8026,-3.786641 -1.03677,-1.036778 -7.41362,3.891398 -11.58467,8.952909 L 112.66153,25.5 l 3.91923,-3.577427 c 2.15558,-1.967584 5.85249,-5.059333 8.21535,-6.870552 z M 112.12756,22.25 c 1.24387,-1.586056 1.2085,-1.621426 -0.37756,-0.377555 -0.9625,0.754844 -1.75,1.542344 -1.75,1.75 0,0.823034 0.82119,0.293303 2.12756,-1.372445 z"
       id="path3348"
       inkscape:connector-curvature="0" />
    <path
       style="fill-opacity:1"
       d="M 0.47009863,259.97614 C 2.6410181,243.46416 14.154066,198.18619 18.017134,190.96798 c 1.482602,-2.77026 5.980095,-22.0282 5.981571,-25.61264 7.12e-4,-1.72957 -0.930218,-6.16056 -2.068734,-9.84664 -1.138515,-3.68609 -1.844506,-6.9275 -1.568869,-7.20314 0.275638,-0.27563 1.636199,1.68035 3.023468,4.34664 l 2.522307,4.8478 0.04656,-4.61901 C 26.222536,126.18581 44.460793,87.615809 71.764698,56 94.935364,29.170161 119.47121,9.6765914 132.61781,7.6526006 c 2.26479,-0.3486775 7.10351,-2.0311366 10.75269,-3.738798 8.98328,-4.20377968 13.75318,-4.79011799 16.5134,-2.0298998 4.70072,4.7007139 1.95444,12.4454012 -9.49983,26.7901532 -4.55057,5.698912 -11.29289,15.416122 -14.98292,21.593801 C 131.71111,56.445536 126.80033,63.975 124.48831,67 c -5.72804,7.49445 -16.68319,30.060258 -15.36476,31.648873 0.68065,0.820128 0.38389,2.407147 -0.93962,5.024927 -1.06396,2.10441 -3.85101,9.2262 -6.19343,15.8262 -5.033642,14.18279 -10.747999,25.68842 -15.537164,31.28348 C 81.892374,156.11194 71.348837,162.99247 56,170.65679 l -12.5,6.24178 6.5,0.007 c 3.575,0.004 8.3,-0.64165 10.5,-1.43423 4.968506,-1.78996 5.009688,-1.79022 3.542453,-0.0223 -1.947768,2.34691 -7.395611,3.66626 -18.374411,4.44987 -6.635046,0.47358 -11.093937,1.28618 -12.513524,2.2805 -2.036034,1.42609 -1.462381,1.50588 7.468033,1.03877 11.13688,-0.58254 12.492343,1.08424 1.7747,2.18229 -7.844771,0.80372 -12.043462,2.41514 -15.188523,5.82922 -2.310421,2.50805 -8.674221,23.11902 -14.67233,47.5205 -2.7805406,11.31178 -4.8572947,14.30621 -5.8950803,8.5 -0.2703399,-1.5125 -0.3523642,-0.275 -0.1822763,2.75 0.323821,5.75913 -1.63123,11.23816 -5.0108928,14.04303 -1.5746393,1.30684 -1.64570986,1.01131 -0.97804997,-4.06689 z M 11.683114,224.8125 c -0.319226,-0.79773 -0.556183,-0.56078 -0.604167,0.60417 -0.04342,1.05416 0.192928,1.64479 0.52522,1.3125 0.332291,-0.3323 0.367818,-1.1948 0.07895,-1.91667 z M 33.530007,158.20993 C 32.656176,157.29424 11.93869,219.2281 12.027463,222.49068 12.042568,223.04581 16.9491,208.875 22.930869,191 c 5.981768,-17.875 10.75138,-32.63053 10.599138,-32.79007 z m 12.264101,11.71522 c 8.883309,-4.42319 8.910606,-5.08891 0.05585,-1.362 -8.02323,3.37693 -13.488825,6.89356 -14.946086,9.61647 -0.968386,1.80945 -0.425762,1.60977 3.001112,-1.10436 2.300779,-1.82225 7.650886,-5.0398 11.889127,-7.15011 z m -0.02016,-3.82785 c 3.45067,-1.31051 6.097346,-2.55934 5.881501,-2.77519 C 51.160676,162.82734 41.01222,166.6433 39,168.08073 c -1.728093,1.23447 -1.601244,1.19733 6.773945,-1.98343 z m -1.990701,-2.46959 c 2.594216,-1.30476 8.640864,-3.64315 13.436996,-5.19643 4.796133,-1.55327 8.580582,-2.96379 8.409887,-3.13449 -0.451305,-0.4513 -22.417494,3.45376 -23.624823,4.19993 C 40.794936,160.24477 37.699529,166 38.507564,166 c 0.307408,0 2.681464,-1.06753 5.27568,-2.37229 z M 31.969591,151.13519 C 31.924882,147.26075 30.381168,150.40731 29.582898,156 l -0.642305,4.5 1.529703,-3.36481 c 0.841337,-1.85065 1.51602,-4.55065 1.499295,-6 z M 35.969374,153.5 c 0,-0.55 -0.436218,-0.325 -0.969374,0.5 -0.533156,0.825 -0.969374,1.95 -0.969374,2.5 0,0.55 0.436218,0.325 0.969374,-0.5 0.533156,-0.825 0.969374,-1.95 0.969374,-2.5 z m 20.649636,0.95477 c 14.901081,-2.59269 24.684079,-8.01528 31.1644,-17.27403 C 91.038477,132.53007 104,106.68713 104,104.84779 c 0,-1.32899 -16.363896,3.6838 -23.560253,7.21727 -10.781512,5.2938 -23.318382,13.10542 -26.636699,16.59709 C 51.337615,131.25639 47.326975,139 48.44878,139 c 0.261591,0 3.28767,-2.50914 6.724621,-5.57588 C 62.180948,127.17141 69.38498,122.70924 79,118.66597 c 7.745883,-3.25727 17,-5.8062 17,-4.68245 0,0.44138 -0.5625,1.03321 -1.25,1.31518 -0.6875,0.28198 -6.259446,2.54099 -12.382101,5.02002 -12.109535,4.9031 -15.900926,7.04309 -27.567756,15.56018 -6.633413,4.84257 -7.983805,6.35343 -9.75,10.90861 C 43.922564,149.69564 43,152.95814 43,154.03751 c 0,2.43351 1.726832,2.48642 13.61901,0.41726 z M 43.052888,126.52689 c 2.303352,-5.75235 2.910391,-8.74352 2.779004,-13.69348 L 45.663785,106.5 l -0.615496,6 -0.615496,6 -0.79829,-4 c -0.439059,-2.2 -0.907474,-4.43811 -1.040923,-4.97358 -0.133448,-0.53547 -1.714724,3.06453 -3.513946,8 -3.326494,9.12494 -4.923252,18.86837 -3.630992,22.15634 0.599044,1.52418 1.032158,1.20337 2.68568,-1.98928 1.0843,-2.09359 3.297655,-7.11856 4.918566,-11.16659 z m 25.360045,-10.68756 c 4.352114,-2.60279 11.434667,-6.18636 15.739008,-7.96349 4.304341,-1.77714 7.65127,-3.40596 7.437619,-3.61961 -0.552724,-0.55273 -13.572637,5.09039 -22.319569,9.67379 -4.076147,2.13591 -6.710389,3.10911 -5.853871,2.16267 2.490307,-2.75176 15.235025,-9.61501 26.213386,-14.11636 5.571228,-2.284317 11.763904,-5.500511 13.761494,-7.147097 4.23552,-3.491275 11.57659,-16.135318 11.59578,-19.972244 0.0281,-5.626653 -7.10839,-5.295318 -22.900755,1.063238 -4.145646,1.669181 -5.112606,1.816727 -4.127555,0.629814 C 88.666001,75.697518 88.988899,75 88.676021,75 86.99944,75 75.817672,82.412495 73.953104,84.759955 71.345079,88.043415 55,120.89858 55,122.8575 c 0,1.05266 0.640885,0.94623 2.75,-0.45666 1.5125,-1.00605 6.31082,-3.95873 10.662933,-6.56151 z M 56,101.30551 c 13.134614,-23.61856 28.275454,-44.995386 44.36144,-62.632371 8.34282,-9.14723 8.78466,-9.818705 7.65922,-11.639703 -0.70328,-1.137931 -1.33933,-1.059642 -3.68532,0.453611 -3.91986,2.52846 -26.955345,26.039481 -32.298707,32.96547 -3.892838,5.04584 -4.389139,6.282176 -4.45854,11.106657 C 67.492234,77.527852 66.585214,78.676072 65.65,74 c -0.33,-1.65 -1.04384,-3 -1.586312,-3 -0.992287,0 -8.941425,12.878403 -13.49162,21.857781 -1.345425,2.655067 -2.555404,6.36073 -2.688843,8.234809 -0.397376,5.58093 0.06328,11.90763 0.866775,11.90429 0.4125,-0.002 3.675,-5.26284 7.25,-11.69137 z M 93.408227,70.498322 c 4.432828,-1.668512 7.861753,-2.378299 9.621833,-1.99172 3.18926,0.70048 16.92912,-2.594608 20.45658,-4.905891 1.3322,-0.87289 4.58019,-5.191941 7.21777,-9.597892 2.63757,-4.405951 7.15809,-11.628093 10.04559,-16.049205 2.8875,-4.421112 5.25,-8.469312 5.25,-8.996 0,-1.466454 -10.71966,-1.111101 -18,0.596695 -18.80098,4.410266 -19.32421,4.687316 -27.57568,14.601365 -4.147685,4.983403 -7.402439,9.196905 -7.232784,9.363339 0.169655,0.166434 3.610882,-0.806451 7.647174,-2.161967 C 108.21885,48.878554 113.0948,48.63042 107.5,51.018057 97.290719,55.374968 91.544348,58.212414 89.187106,60.060607 85.621827,62.855959 78,73.86535 78,76.219886 c 0,1.720274 0.329401,1.67138 4.260504,-0.6324 2.343277,-1.373252 7.359752,-3.663375 11.147723,-5.089164 z M 133.6468,26.093803 c 3.76926,-0.618595 8.4282,-1.270745 10.3532,-1.449223 2.09091,-0.193861 1.22049,-0.388936 -2.16203,-0.484543 -3.11412,-0.08802 -9.17885,0.512841 -13.47718,1.335247 -4.29833,0.822407 -8.52608,1.269644 -9.39499,0.99386 -0.91757,-0.291223 -2.75821,0.728512 -4.39076,2.432527 l -2.8109,2.933952 7.51473,-2.318551 c 4.13309,-1.275203 10.59866,-2.824674 14.36793,-3.443269 z M 127.39863,12.666574 130.5,9.8331478 126.23006,12.111923 c -2.34847,1.253326 -6.62347,5.002674 -9.5,8.331883 l -5.23006,6.053109 6.39863,-5.498458 c 3.51925,-3.024151 7.79425,-6.773499 9.5,-8.331883 z m -0.17786,10.819533 c 2.59643,-0.709314 9.40039,-1.608625 15.11992,-1.998469 5.71952,-0.389844 10.85104,-0.996544 11.40338,-1.348222 4.08412,-2.600418 6.90257,-13.5703123 3.79312,-14.7635193 -1.77224,-0.6800733 -10.21001,1.9902815 -17.03719,5.3918703 -9.17229,4.570023 -26.51858,17.41265 -20,14.807349 1.1,-0.439641 4.12435,-1.379695 6.72077,-2.089009 z M 112,22.5 c 1.29175,-1.375 2.12363,-2.5 1.84863,-2.5 -0.275,0 -1.55688,1.125 -2.84863,2.5 -1.29175,1.375 -2.12363,2.5 -1.84863,2.5 0.275,0 1.55688,-1.125 2.84863,-2.5 z"
       id="path3346"
       inkscape:connector-curvature="0" />
    <path
       style="fill-opacity:1"
       d="M 0.46558357,259.97614 C 2.6272155,243.43105 8.7258834,219.04948 16.971332,193.98861 c 7.538096,-22.91097 8.426824,-31.00477 4.449631,-40.52353 -2.410618,-5.76942 -1.009429,-6.49047 1.875397,-0.96508 l 2.610517,5 0.08145,-5 C 26.393365,127.63557 42.158987,92.562407 66.668688,62 75.507502,50.978428 96.19527,30.239827 106.97427,21.595381 116.21316,14.186062 127.41778,8 131.59917,8 c 1.45701,0 6.24869,-1.6252574 10.64818,-3.611683 4.39949,-1.9864257 9.67193,-3.83605942 11.71652,-4.11029718 3.17211,-0.42546804 4.03422,-0.0959032 5.87679,2.24654168 4.32881,5.5031936 1.99457,11.8830395 -9.63976,26.3469355 -4.31329,5.362313 -10.91659,14.8974 -14.67401,21.189082 C 131.76948,56.35226 126.78536,63.975 124.45108,67 c -5.31297,6.885088 -17.11714,30.970317 -15.62924,31.889893 0.70507,0.435754 0.38026,2.157897 -0.96812,5.132937 -1.11605,2.46244 -3.84211,9.65217 -6.05791,15.97717 -4.585977,13.09065 -10.313386,24.7465 -14.88479,30.29203 -5.133048,6.22687 -22.974024,17.18069 -40.672574,24.97175 -2.590383,1.1403 -2.428065,1.22251 3.002076,1.52047 5.25689,0.28845 8.885291,-0.30131 14.259478,-2.31777 1.798304,-0.67474 1.848728,-0.58953 0.5,0.84495 C 61.865941,177.58118 51.680978,180 44.257783,180 c -6.110586,0 -12.360039,1.7384 -13.628654,3.79106 -0.401831,0.65018 0.682442,0.69382 3.127923,0.1259 C 38.90371,182.72172 49,182.77673 49,184 c 0,0.55 -1.552851,1 -3.450779,1 -6.853018,0 -13.734015,2.14193 -17.226493,5.36229 -2.976052,2.74418 -3.942109,5.01902 -7.702542,18.13771 -2.364837,8.25 -5.774106,20.9625 -7.576154,28.25 -3.2671561,13.21241 -5.3170485,16.57409 -6.4027143,10.5 -0.2703399,-1.5125 -0.3523642,-0.275 -0.1822763,2.75 0.323821,5.75913 -1.63123,11.23816 -5.0108928,14.04303 -1.57455189,1.30676 -1.64600113,1.01103 -0.98256503,-4.06689 z M 11.683114,224.8125 c -0.319226,-0.79773 -0.556183,-0.56078 -0.604167,0.60417 -0.04342,1.05416 0.192928,1.64479 0.52522,1.3125 0.332291,-0.3323 0.367818,-1.1948 0.07895,-1.91667 z M 33.38227,160.59635 c 1.454072,-3.797 2.476185,-7.07123 2.271361,-7.27605 -1.226737,-1.22674 -23.833534,65.16352 -23.607455,69.32892 0.0254,0.46793 4.24156,-11.74922 9.369251,-27.14922 5.127691,-15.4 10.51277,-31.10664 11.966843,-34.90365 z m 12.111915,9.60579 c 8.541467,-4.58543 6.914348,-4.71565 -2.994185,-0.23963 -6.221808,2.8106 -12.5,7.45399 -12.5,9.24507 0,0.56639 1.684883,-0.26111 3.744185,-1.83889 2.059302,-1.57778 7.346802,-4.80273 11.75,-7.16655 z m 1.275982,-4.44579 c 2.898592,-1.12714 5.095267,-2.22425 4.881501,-2.43802 -0.49929,-0.49929 -10.678323,3.347 -12.651668,4.78061 -1.742448,1.26586 -0.705297,0.95318 7.770167,-2.34259 z m -2.986923,-2.12864 c 2.594216,-1.30476 8.640864,-3.64315 13.436996,-5.19643 4.796133,-1.55327 8.580582,-2.96379 8.409887,-3.13449 -0.170695,-0.17069 -5.387992,0.57335 -11.593995,1.65344 -11.324675,1.97093 -14.366603,3.38149 -15.342817,7.11453 -0.635114,2.42868 -0.602331,2.42587 5.089929,-0.43705 z M 57,165 c 0.825,-0.53316 1.05,-0.96937 0.5,-0.96937 -0.55,0 -1.675,0.43621 -2.5,0.96937 -0.825,0.53316 -1.05,0.96937 -0.5,0.96937 0.55,0 1.675,-0.43621 2.5,-0.96937 z M 31.924487,151.5 c 0.02093,-4.27174 -1.536408,-1.22294 -2.298607,4.5 l -0.599324,4.5 1.441618,-3 c 0.79289,-1.65 1.448231,-4.35 1.456313,-6 z m 24.694523,2.97002 c 11.59921,-1.99827 21.827731,-6.81383 27.872167,-13.12215 3.287464,-3.43099 6.732552,-9.17673 12.05579,-20.10671 C 100.64614,112.8245 104,105.53452 104,105.0412 c 0,-1.82744 -18.670203,4.16121 -26.972252,8.65161 -11.1315,6.02079 -20.975921,12.4217 -23.73002,15.42941 C 51.193774,131.41992 47.46508,139 48.438779,139 c 0.25609,0 3.524629,-2.72881 7.26342,-6.06401 7.684739,-6.85522 22.658734,-14.81863 33.749057,-17.9483 10.026045,-2.82933 6.65582,-0.16336 -6.27201,4.9614 -12.237446,4.85107 -17.068793,7.5369 -27.973438,15.55091 -7.12084,5.23323 -8.422439,6.67572 -10.184998,11.28751 -1.111445,2.90813 -2.02081,6.17063 -2.02081,7.25 0,2.43011 1.708685,2.48437 13.61901,0.43251 z M 40.969374,140.5 c 0,-0.55 -0.436218,-0.325 -0.969374,0.5 -0.533156,0.825 -0.969374,1.95 -0.969374,2.5 0,0.55 0.436218,0.325 0.969374,-0.5 0.533156,-0.825 0.969374,-1.95 0.969374,-2.5 z m 2.083514,-13.97311 c 2.303352,-5.75235 2.910391,-8.74352 2.779004,-13.69348 L 45.663785,106.5 l -0.615496,6 -0.615496,6 -0.79829,-4 c -0.439059,-2.2 -0.907474,-4.43811 -1.040923,-4.97358 -0.133448,-0.53547 -1.714724,3.06453 -3.513946,8 -3.326494,9.12494 -4.923252,18.86837 -3.630992,22.15634 0.599044,1.52418 1.032158,1.20337 2.68568,-1.98928 1.0843,-2.09359 3.297655,-7.11856 4.918566,-11.16659 z m 25.360045,-10.68756 c 4.352114,-2.60279 11.434667,-6.18636 15.739008,-7.96349 4.304341,-1.77714 7.664527,-3.39271 7.467079,-3.59015 -0.578449,-0.57845 -9.820169,3.29303 -19.671432,8.24063 -5.025206,2.52381 -8.846818,4.11965 -8.492471,3.5463 1.2034,-1.94714 14.044131,-8.87504 25.272403,-13.6351 13.43992,-5.69765 17.12392,-8.558728 21.80991,-16.938059 5.05001,-9.030275 5.72154,-11.833246 3.32629,-13.884121 -1.74566,-1.494675 -2.4922,-1.511138 -8.14279,-0.179559 -3.42151,0.80629 -9.14593,2.603035 -12.72093,3.992767 -5.717874,2.222745 -6.215934,2.288819 -4.139216,0.549119 3.747134,-3.139035 1.321151,-2.313684 -6.021843,2.048708 -3.727566,2.214507 -7.881847,5.477007 -9.231735,7.25 C 70.711686,89.079461 55,120.78603 55,122.82617 c 0,1.10202 0.591256,1.01057 2.75,-0.42533 1.5125,-1.00605 6.31082,-3.95873 10.662933,-6.56151 z M 56,101.3503 C 69.593513,77.000237 84.542098,55.986392 101.26445,37.720186 106.61509,31.875562 108.83571,28.735445 108.40746,27.61945 108.06567,26.728752 107.39572,26 106.91869,26 105.1815,26 92.139445,38.028036 82.915169,48.137255 68.978392,63.411076 67.967397,64.931341 67.259227,71.679592 66.68122,77.187499 66.602638,77.325506 65.795621,74.25 65.326578,72.4625 64.535887,71 64.03853,71 c -0.978976,0 -9.209239,13.308816 -13.395466,21.661251 -1.422746,2.838688 -2.689722,6.888688 -2.815501,8.999999 -0.351733,5.9041 0.09054,11.33909 0.922437,11.33563 0.4125,-0.002 3.675,-5.24268 7.25,-11.64658 z M 93.283333,70.545332 c 7.359187,-2.769989 9.180367,-3.104629 8.191897,-1.50525 -0.41958,0.678892 0.34128,0.815735 2.19098,0.394055 12.08067,-2.754066 18.07452,-4.596667 20.25972,-6.228158 1.40044,-1.045579 4.53862,-5.232162 6.97373,-9.303516 2.43512,-4.071355 6.82888,-11.130448 9.76391,-15.686873 2.93504,-4.556426 5.33643,-8.718926 5.33643,-9.25 0,-2.037293 -12.56472,-0.910374 -24.42676,2.190815 -11.16618,2.919266 -12.38852,3.479857 -16.26969,7.461669 -5.2451,5.381116 -12.50591,14.512899 -11.967499,15.05131 0.222158,0.222159 2.59993,-0.456651 5.283936,-1.508465 6.019883,-2.359084 12.281893,-3.753184 10.880013,-2.422196 -0.55,0.522186 -3.7,1.98468 -7,3.249987 -9.959446,3.818715 -14.966628,7.541603 -19.939717,14.825371 -2.510695,3.677255 -4.563861,7.492388 -4.562591,8.478073 0.0021,1.612833 0.428608,1.542325 4.262812,-0.704668 2.343277,-1.373252 7.30355,-3.642221 11.022829,-5.042154 z M 139.92054,25.131836 c 7.49595,-0.860655 7.51813,-0.871684 2.01312,-1.00104 -4.88954,-0.114893 -12.35575,0.805147 -19.76745,2.435882 -1.28358,0.282417 -2.08329,0.108173 -1.77713,-0.387209 1.07728,-1.743077 12.19961,-4.110742 20.11092,-4.28111 11.10734,-0.239195 13.72162,-1.168685 16.32744,-5.805115 2.50915,-4.464429 2.86839,-9.889 0.70975,-10.7173473 C 153.97728,4.0098316 136.15164,12.111094 125.79952,19.799789 122.88479,21.964616 118.475,25.555257 116,27.778991 l -4.5,4.043151 10.42054,-2.910031 c 5.7313,-1.600517 13.8313,-3.301641 18,-3.780275 z M 127.39863,12.666574 130.5,9.8331478 126.1325,12.166574 c -2.40212,1.283384 -6.67712,5.026134 -9.5,8.317222 l -5.1325,5.983797 6.39863,-5.483797 c 3.51925,-3.016088 7.79425,-6.758838 9.5,-8.317222 z m -15.10195,9.802001 C 114.60722,19.293985 113.99803,19.308749 111,22.5 c -1.29175,1.375 -1.93269,2.485859 -1.42431,2.468575 0.50837,-0.01728 1.73282,-1.142284 2.72099,-2.5 z"
       id="path3344"
       inkscape:connector-curvature="0" />
    <path
       style="fill-opacity:1"
       d="m 0,263.79734 c 0,-8.33172 9.2685742,-46.58526 16.468507,-67.96932 7.895729,-23.45061 8.885953,-30.90623 5.430844,-40.89006 -2.570562,-7.42784 -1.816646,-8.87953 1.290299,-2.4845 l 2.281148,4.69529 1.222042,-10.96121 C 30.202911,114.70363 49.709537,78.995587 82.242815,44.5 99.991709,25.680546 123.73697,8.0461244 131.37414,8.0126119 c 1.58078,-0.00694 6.31354,-1.5655467 10.51726,-3.463578 4.20372,-1.8980314 9.47866,-3.74447998 11.72209,-4.10321908 3.63951,-0.58198187 4.311,-0.35726368 6.23274,2.08582478 4.31474,5.4853076 1.73931,12.2902054 -10.29134,27.1921514 -4.0956,5.073085 -9.76561,13.173085 -12.60002,18 -2.8344,4.826915 -7.7556,12.378947 -10.936,16.782294 -6.90436,9.559271 -18.81283,33.385186 -17.18816,34.389286 0.73959,0.457091 0.29145,2.405969 -1.38558,6.025669 -1.3633,2.94254 -4.21091,10.36011 -6.32801,16.48349 -9.535839,27.58082 -16.256394,34.90779 -44.848239,48.89497 l -12.67472,6.2005 5.781305,0.30224 c 3.179718,0.16624 8.014797,-0.35248 10.744621,-1.15271 3.673017,-1.07671 4.695595,-1.13237 3.93349,-0.21409 -1.685661,2.0311 -8.662474,3.66597 -19.092233,4.47386 -6.589183,0.5104 -10.681262,1.33239 -12.471028,2.50509 -3.395248,2.22465 -2.798432,2.82116 1.569314,1.56851 C 38.274858,182.77399 49,182.68318 49,183.8564 c 0,0.47102 -3.18465,1.15238 -7.077001,1.51414 -13.468205,1.25174 -15.796951,3.79132 -21.373767,23.30889 -2.3291,8.15132 -5.707784,20.78307 -7.508188,28.07057 -3.2641625,13.21236 -5.3138501,16.57527 -6.3997263,10.5 C 6.3709778,245.7375 6.2889535,246.975 6.4590414,250 6.778619,255.68366 4.8332695,261.23363 1.573088,263.93934 0.26551926,265.02453 0,265.00056 0,263.79734 Z M 10.683114,228.8125 c -0.319226,-0.79773 -0.556183,-0.56078 -0.604167,0.60417 -0.04342,1.05416 0.192928,1.64479 0.52522,1.3125 0.332291,-0.3323 0.367818,-1.1948 0.07895,-1.91667 z M 17.55213,207.5 c 3.097058,-9.9 8.497803,-26.0795 12.001655,-35.95445 3.503852,-9.87495 6.22592,-18.09918 6.04904,-18.27606 -1.313185,-1.31318 -24.833232,68.82479 -24.523878,73.13145 0.105916,1.4745 0.02661,1.70606 6.473183,-18.90094 z m 31.632415,-39.06292 c 10.412037,-5.01707 8.525041,-4.90594 -3.718134,0.21896 C 37.63945,171.93235 30,177.11966 30,179.15797 c 0,0.5568 2.220545,-0.61766 4.934545,-2.60992 2.713999,-1.99226 9.126499,-5.6422 14.25,-8.11097 z M 48.5,165.02309 c 11.004598,-4.36778 11.770186,-5.54076 0.96085,-1.47213 -6.367365,2.39667 -12.575628,5.32456 -11.46085,5.40508 0.275,0.0199 5,-1.74996 10.5,-3.93295 z m -6.20034,-0.68277 C 44.059847,163.42749 50.9,160.7113 57.5,158.30434 c 6.6,-2.40696 10.65,-4.0957 9,-3.75276 -1.65,0.34294 -5.25,1.00826 -8,1.47849 -16.163126,2.76376 -18.697115,3.79169 -19.806685,8.03469 -0.615437,2.35344 -0.428012,2.36776 3.606345,0.27556 z M 31.924487,151.5 c 0.02093,-4.27174 -1.536408,-1.22294 -2.298607,4.5 l -0.599324,4.5 1.441618,-3 c 0.79289,-1.65 1.448231,-4.35 1.456313,-6 z m 26.643743,2.60215 c 20.274758,-4.18447 26.77553,-9.79231 37.950208,-32.73746 4.169572,-8.56144 7.446152,-15.89907 7.281302,-16.30584 -0.57351,-1.41509 -15.351374,2.95205 -23.29974,6.88552 -19.251816,9.52729 -27.945105,16.07072 -30.962739,23.30563 -1.965289,4.71186 -0.893768,4.75738 3.516572,0.14939 6.853424,-7.16057 19.759582,-14.75304 32.371319,-19.04349 C 99.717404,111.49375 98.0027,114.06797 83,119.99669 c -12.70207,5.01956 -17.03863,7.42595 -27.718714,15.38135 -7.132651,5.31297 -8.487139,6.82068 -10.25,11.40947 -2.94626,7.66923 -2.741431,9.21536 1.218714,9.19935 1.7875,-0.007 7.330704,-0.85534 12.31823,-1.88471 z M 38.426786,147 c 0.46475,-1.73748 0.386035,-2.04249 -0.258074,-1 -0.509732,0.825 -1.227707,2.625 -1.595498,4 -0.46475,1.73748 -0.386035,2.04249 0.258074,1 0.509732,-0.825 1.227707,-2.625 1.595498,-4 z m 2.542588,-6.5 c 0,-0.55 -0.436218,-0.325 -0.969374,0.5 -0.533156,0.825 -0.969374,1.95 -0.969374,2.5 0,0.55 0.436218,0.325 0.969374,-0.5 0.533156,-0.825 0.969374,-1.95 0.969374,-2.5 z m 0.5972,-10 c 3.13577,-7.32785 3.877811,-10.30056 3.993882,-16 0.125034,-6.13953 0.08114,-6.32391 -0.357098,-1.5 l -0.499655,5.5 -1.160955,-5 -1.160955,-5 -3.286736,9 c -3.296086,9.0256 -4.939764,18.85635 -3.695066,22.09998 0.931195,2.42665 1.753022,1.21389 6.166583,-9.09998 z m 27.462539,-14.95192 c 4.691012,-2.77874 11.780975,-6.36135 15.755473,-7.96136 3.974499,-1.60001 7.057404,-3.07806 6.8509,-3.28457 -0.572027,-0.57202 -9.494804,3.11625 -19.843323,8.20234 -6.499714,3.19448 -8.452311,3.85802 -6.497467,2.20801 3.164955,-2.67143 17.417046,-9.90233 28.903925,-14.66462 9.279529,-3.847156 13.507059,-8.114834 18.542979,-18.719052 l 3.52801,-7.428987 -2.12009,-1.975173 c -2.02454,-1.886143 -2.41212,-1.90745 -8.5986,-0.472711 -3.56317,0.826354 -9.194784,2.606193 -12.514703,3.955197 C 86.327543,78.133132 85.337089,77.9845 90.25,74.98904 92.0375,73.89918 93.040591,73.005794 92.479091,73.003738 90.146863,72.995199 75.92812,82.228125 73.634707,85.24032 70.719333,89.069405 55,120.77501 55,122.82617 c 0,1.1055 0.584449,1.01815 2.75,-0.411 1.5125,-0.99816 6.588101,-4.08835 11.279113,-6.86709 z M 54.280792,104.53386 C 67.918069,79.644787 83.617549,57.16378 99.363182,39.977735 104.64294,34.214981 108.96424,29.275 108.96606,29 c 0.002,-0.275 -0.40139,-1.139418 -0.89603,-1.920929 C 106.65593,24.844839 103.04324,27.657978 89,41.928589 71.421646,59.791551 67.894544,64.593948 67.086231,71.765718 66.495353,77.008295 66.380342,77.221318 65.744967,74.25 65.362735,72.4625 64.618955,71 64.092121,71 62.342401,71 49.649513,93.248484 47.880756,99.41578 46.976422,102.56901 47.804136,113 48.958683,113 c 0.375827,0 2.770776,-3.80976 5.322109,-8.46614 z M 81.966416,75.87935 C 85.794544,73.545671 99.173656,68 100.9756,68 c 0.62834,0 0.85317,0.468037 0.49963,1.040082 -0.41958,0.678892 0.34128,0.815735 2.19098,0.394055 12.08067,-2.754066 18.07452,-4.596667 20.25972,-6.228158 1.40044,-1.045579 4.53862,-5.232162 6.97373,-9.303516 2.43512,-4.071355 6.82888,-11.130448 9.76391,-15.686873 C 143.59861,33.659164 146,29.434246 146,28.826884 c 0,-3.560911 -34.10967,3.259012 -39.18773,7.835236 -3.04077,2.740263 -13.972571,16.510912 -13.490137,16.993346 0.229813,0.229813 2.613848,-0.434144 5.297854,-1.47546 C 105.04517,49.687222 109,48.770471 109,49.773862 c 0,0.446582 -2.51536,1.666965 -5.5897,2.711963 -10.039187,3.412426 -16.128937,8.021316 -21.529464,16.294094 -6.445026,9.87279 -6.430573,11.071765 0.08558,7.099431 z M 127.24687,27.46572 c 3.16078,-0.835369 9.01078,-1.898517 13,-2.362551 L 147.5,24.259471 141.93366,24.129735 C 137.01432,24.01508 129.70848,24.919483 122,26.59736 c -1.6404,0.357058 -2.15616,0.20721 -1.5,-0.435808 C 122.68516,24.020154 132.7018,22 141.13445,22 c 4.82429,0 9.84325,-0.488346 11.15323,-1.085212 4.50371,-2.052028 8.51617,-11.4332014 6.22836,-14.5619681 C 157.26403,4.6405963 156.9736,4.64155 151.35555,6.3763329 140.24808,9.8061812 121.74686,21.241914 114.06962,29.423021 l -2.43038,2.589888 4.93038,-1.514168 c 2.71171,-0.832792 7.51647,-2.197651 10.67725,-3.033021 z m -1.22313,-13.183276 c 5.16022,-3.650138 5.09351,-5.0383429 -0.10181,-2.118412 -2.24293,1.260601 -6.62658,5.226894 -9.74143,8.813985 L 110.51712,27.5 l 5.78653,-5.217556 c 3.18259,-2.869655 7.55663,-6.469655 9.72009,-8 z m -13.72706,8.186131 C 114.60722,19.293985 113.99803,19.308749 111,22.5 c -1.29175,1.375 -1.93269,2.485859 -1.42431,2.468575 0.50837,-0.01728 1.73282,-1.142284 2.72099,-2.5 z"
       id="path3342"
       inkscape:connector-curvature="0" />
    <path
       style="fill-opacity:1"
       d="M 0,263.79734 C 0,260.62761 4.2770904,238.81729 7.1180507,227.5 8.7748375,220.9 12.560214,208.075 15.529999,199 c 9.139451,-27.92812 9.968364,-33.66239 6.369352,-44.06204 -2.592182,-7.49032 -1.86209,-8.75689 1.375539,-2.38629 l 2.412628,4.74726 0.675169,-8.09585 C 29.160834,115.65087 51.313253,75.604295 86.493574,40.5 93.107868,33.9 101.74832,25.885449 105.69458,22.689887 114.75414,15.353722 127.57905,8 131.31378,8 c 1.57422,0 6.43786,-1.57212 10.8081,-3.4935999 4.37023,-1.92148 9.66144,-3.76792852 11.75823,-4.10321905 3.33246,-0.53288306 4.08345,-0.26496239 5.96612,2.12845855 4.27118,5.4299232 2.14844,11.3996174 -8.95629,25.1874314 -4.08378,5.070488 -10.07451,13.620488 -13.31274,19 -3.23822,5.379511 -8.46465,13.383667 -11.61428,17.787014 -6.91038,9.661082 -18.73585,33.398187 -17.13221,34.389286 0.73982,0.457235 0.29658,2.394899 -1.37136,5.994969 -1.35548,2.92565 -4.31589,10.55968 -6.5787,16.96451 -9.76422,27.6374 -16.44589,34.82135 -45.451339,48.86805 L 43.5,176.5 l 5.828385,0.30224 c 3.205612,0.16624 8.043112,-0.34698 10.75,-1.14048 6.117153,-1.79319 6.331195,-1.17282 0.487253,1.41223 -2.824099,1.24923 -8.244271,2.25888 -14.926144,2.78037 -7.166962,0.55935 -11.334927,1.37129 -13.152402,2.56214 -3.392235,2.22268 -2.7939,2.81868 1.572538,1.5664 C 38.272254,182.77473 49,182.68287 49,183.85496 c 0,0.47023 -3.116244,1.11622 -6.924987,1.43553 -7.523084,0.63071 -11.298118,2.15234 -14.895583,6.00407 C 24.679647,193.97102 20.102776,208.4848 13.475902,234.75 9.6900956,249.75481 7.729828,253.34001 6.6413177,247.25 6.3709778,245.7375 6.2889535,246.975 6.4590414,250 6.778619,255.68366 4.8332695,261.23363 1.573088,263.93934 0.26551926,265.02453 0,265.00056 0,263.79734 Z M 10.683114,228.8125 c -0.319226,-0.79773 -0.556183,-0.56078 -0.604167,0.60417 -0.04342,1.05416 0.192928,1.64479 0.52522,1.3125 0.332291,-0.3323 0.367818,-1.1948 0.07895,-1.91667 z M 22.046227,194 c 4.812323,-14.575 10.599416,-31.40868 12.860207,-37.40819 2.26079,-5.9995 3.950911,-11.0678 3.755825,-11.26288 -1.496744,-1.49675 -27.972805,76.3289 -27.560171,81.01236 0.05615,0.63729 0.572872,-0.41629 1.148274,-2.34129 0.575402,-1.925 4.983542,-15.425 9.795865,-30 z m 27.138318,-25.4884 c 10.617127,-5.03097 11.022515,-5.62911 1.346814,-1.98718 -8.761628,3.29787 -13.551757,5.78042 -17.397829,9.01668 -5.004385,4.21091 -3.618905,4.98554 1.801015,1.00695 2.713999,-1.99226 9.126499,-5.60866 14.25,-8.03645 z m 6.08943,-5.99546 c 4.275686,-1.54084 7.602974,-2.97252 7.393973,-3.18153 -0.521578,-0.52157 -17.29857,5.44724 -21.917948,7.79783 -5.520676,2.80923 -4.561191,3.11074 1.5,0.47137 2.8875,-1.25738 8.748289,-3.54683 13.023975,-5.08767 z m -13.150908,1.92022 c 1.663061,-0.86 8.278214,-3.3744 14.70034,-5.58755 12.095564,-4.16828 15.215213,-5.63644 9.176593,-4.31865 -1.925,0.42009 -7.882431,1.52333 -13.238736,2.45164 -9.84924,1.70699 -13.088607,3.33795 -14.067949,7.08296 -0.61148,2.3383 -0.414671,2.35963 3.429752,0.3716 z m -10.3554,-13.24003 c -0.324526,-2.46612 -0.449261,-2.35482 -1.460962,1.30367 -0.608379,2.2 -1.356534,5.35 -1.662567,7 -0.461505,2.48824 -0.212282,2.26585 1.460962,-1.30367 1.109563,-2.36702 1.857718,-5.51702 1.662567,-7 z m 26.800563,2.90582 C 78.874775,149.91112 85.558801,144.14557 96.569867,121.3225 100.65644,112.85209 104,105.54961 104,105.09475 c 0,-1.02036 -10.495,1.34155 -17.0814,3.84418 -6.156268,2.3392 -24.091952,12.28224 -29.616052,16.4183 -4.031404,3.01844 -10.126791,12.15186 -8.917114,13.36154 0.32106,0.32106 2.72818,-1.4155 5.349156,-3.85903 8.838258,-8.23987 19.054798,-14.20522 31.690562,-18.50384 C 99.717404,111.49375 98.0027,114.06797 83,119.99669 c -12.564102,4.96504 -16.889191,7.36429 -27.75892,15.3987 -7.230749,5.34463 -8.506794,6.76286 -10.25,11.39212 -2.89861,7.69755 -2.690906,9.21532 1.25892,9.19935 1.7875,-0.007 7.330704,-0.85534 12.31823,-1.88471 z M 40.969374,140.5 c 0,-0.55 -0.436218,-0.325 -0.969374,0.5 -0.533156,0.825 -0.969374,1.95 -0.969374,2.5 0,0.55 0.436218,0.325 0.969374,-0.5 0.533156,-0.825 0.969374,-1.95 0.969374,-2.5 z m 0.316081,-9.24393 c 3.332074,-7.35974 4.001762,-9.95209 4.199466,-16.25607 0.163269,-5.206 0.08674,-5.81773 -0.250194,-2 l -0.485408,5.5 -1.159532,-5 -1.159532,-5 -3.310967,9 c -3.305214,8.98436 -4.969941,18.84085 -3.728541,22.07589 0.90018,2.34583 1.359249,1.6979 5.894708,-8.31982 z M 42.969374,135.5 c 0,-0.55 -0.436218,-0.325 -0.969374,0.5 -0.533156,0.825 -0.969374,1.95 -0.969374,2.5 0,0.55 0.436218,0.325 0.969374,-0.5 0.533156,-0.825 0.969374,-1.95 0.969374,-2.5 z M 68.5,115.90772 c 4.4,-2.58636 11.496381,-6.16478 15.769735,-7.95203 4.273354,-1.78726 7.59436,-3.42493 7.380013,-3.63928 -0.588692,-0.58869 -9.454388,3.0734 -19.857585,8.20243 -5.161874,2.54493 -8.180934,3.65275 -6.792163,2.49232 3.135697,-2.62012 17.002277,-9.72491 27.43622,-14.05745 10.4347,-4.332849 14.65008,-8.305293 19.76342,-18.624437 l 4.16624,-8.407833 -2.08415,-2.084159 c -1.94497,-1.944967 -2.44138,-2.000293 -7.43295,-0.828425 -2.94183,0.690653 -8.230421,2.327059 -11.752428,3.636457 -6.816429,2.534188 -9.134769,2.520064 -4.43476,-0.02702 1.561124,-0.846021 2.451398,-1.556238 1.978385,-1.578258 -0.473012,-0.02202 -3.435613,1.332738 -6.583558,3.010575 C 75.18094,81.847183 73.651577,83.729588 63.956288,103.2524 59.03033,113.1715 55,121.94928 55,122.75858 c 0,1.2132 0.482621,1.1538 2.75,-0.33847 1.5125,-0.99544 6.35,-3.92602 10.75,-6.51239 z M 57.355169,99.25 C 71.805623,73.93699 84.377322,56.437878 102.39275,36.560165 c 5.89283,-6.501974 6.7553,-7.913308 5.94526,-9.728673 -0.89927,-2.015338 -1.30612,-1.814738 -7.99423,3.941541 -7.783347,6.69892 -24.508464,24.33732 -29.45447,31.062844 -2.311637,3.143338 -3.341871,5.844385 -3.809025,9.986425 C 66.493026,77.029264 66.382315,77.230544 65.744967,74.25 65.362735,72.4625 64.605344,71 64.061875,71 62.653468,71 50.482732,91.811746 48.533359,97.553492 46.966149,102.1696 47.200835,113 48.868072,113 c 0.350694,0 4.169887,-6.1875 8.487097,-13.75 z M 87.160871,73.584958 c 9.76229,-4.61509 15.499449,-6.462402 14.363899,-4.62504 -0.85662,1.386043 -0.62661,1.359508 8.80862,-1.016203 14.82297,-3.732301 14.10382,-3.214427 21.41467,-15.421059 3.63096,-6.062461 8.32304,-13.585465 10.42684,-16.717787 2.10381,-3.132321 3.8251,-6.169821 3.8251,-6.75 0,-3.008756 -24.14584,0.636614 -35.42077,5.34758 -3.39193,1.417238 -18.364788,18.145326 -17.244305,19.26581 0.332317,0.332316 2.755406,-0.299524 5.384644,-1.404091 C 104.68992,49.755969 109,48.711907 109,49.773862 c 0,0.446582 -2.51536,1.666965 -5.5897,2.711963 C 93.371113,55.898251 87.281363,60.507141 81.880836,68.779919 77.440953,75.581138 76.268271,78 77.410871,78 c 0.225979,0 4.613479,-1.986769 9.75,-4.415042 z M 127.24687,27.46572 c 3.16078,-0.835369 9.01078,-1.898517 13,-2.362551 L 147.5,24.259471 141.43366,24.129735 c -5.45226,-0.116602 -14.56263,1.04354 -19.93366,2.538412 -1.35271,0.376488 -1.67636,0.226006 -1,-0.464963 C 122.61855,24.03886 132.61905,22 141.1164,22 c 4.81437,0 9.8893,-0.431868 11.27762,-0.959707 3.7063,-1.409131 7.09469,-8.613431 6.72113,-14.290293 -0.44208,-6.71831617 -32.85533,9.5847 -45.04553,22.656721 l -2.43038,2.606188 4.93038,-1.514168 c 2.71171,-0.832792 7.51647,-2.197651 10.67725,-3.033021 z m 0.6928,-14.719221 c 4.22119,-2.9422532 1.63026,-2.8601575 -3.0117,0.09543 -2.43539,1.550632 -6.67797,5.475068 -9.42797,8.72097 l -5,5.901638 7.5,-6.508769 c 4.125,-3.579824 8.59785,-7.273994 9.93967,-8.209268 z M 112.00309,22.75 c 1.90561,-2.603065 1.9928,-2.951415 0.43806,-1.75 -2.23483,1.726935 -3.40394,3.177302 -3.42584,4.25 -0.0268,1.312663 0.54996,0.830065 2.98778,-2.5 z"
       id="path3340"
       inkscape:connector-curvature="0" />
  </g>
</svg>
